<svg width="20" height="21" viewBox="0 0 20 21" fill="none" xmlns="http://www.w3.org/2000/svg">
<g filter="url(#filter0_d)">
<path d="M12.3333 4.66663C13.2616 4.66663 14.1518 5.03538 14.8082 5.69175C15.4646 6.34813 15.8333 7.23837 15.8333 8.16663V12.25H13.5V8.16663C13.5 7.85721 13.3771 7.56046 13.1583 7.34167C12.9395 7.12288 12.6428 6.99996 12.3333 6.99996C12.0239 6.99996 11.7272 7.12288 11.5084 7.34167C11.2896 7.56046 11.1667 7.85721 11.1667 8.16663V12.25H8.83334V8.16663C8.83334 7.23837 9.20208 6.34813 9.85846 5.69175C10.5148 5.03538 11.4051 4.66663 12.3333 4.66663Z" fill="#101010"/>
<path d="M4.16667 5.25H6.5V12.25H4.16667V5.25Z" fill="#101010"/>
<path d="M5.33333 3.49996C5.97767 3.49996 6.5 2.97763 6.5 2.33329C6.5 1.68896 5.97767 1.16663 5.33333 1.16663C4.689 1.16663 4.16667 1.68896 4.16667 2.33329C4.16667 2.97763 4.689 3.49996 5.33333 3.49996Z" fill="#101010"/>
</g>
<defs>
<filter id="filter0_d" x="-1" y="0" width="22" height="22" filterUnits="userSpaceOnUse" color-interpolation-filters="sRGB">
<feFlood flood-opacity="0" result="BackgroundImageFix"/>
<feColorMatrix in="SourceAlpha" type="matrix" values="0 0 0 0 0 0 0 0 0 0 0 0 0 0 0 0 0 0 127 0"/>
<feOffset dy="4"/>
<feGaussianBlur stdDeviation="2"/>
<feColorMatrix type="matrix" values="0 0 0 0 0 0 0 0 0 0 0 0 0 0 0 0 0 0 0.25 0"/>
<feBlend mode="normal" in2="BackgroundImageFix" result="effect1_dropShadow"/>
<feBlend mode="normal" in="SourceGraphic" in2="effect1_dropShadow" result="shape"/>
</filter>
</defs>
</svg>
