<svg width="88" height="88" viewBox="0 0 88 88" fill="none" xmlns="http://www.w3.org/2000/svg">
<g filter="url(#filter0_d)">
<path d="M52.75 55.1797H46.9609V36.25C46.9609 35.9063 46.6797 35.625 46.3359 35.625H41.6484C41.3047 35.625 41.0234 35.9063 41.0234 36.25V55.1797H35.25C34.7265 55.1797 34.4375 55.7813 34.7578 56.1875L43.5078 67.2578C43.5663 67.3325 43.641 67.3929 43.7262 67.4345C43.8115 67.476 43.9051 67.4976 44 67.4976C44.0948 67.4976 44.1885 67.476 44.2737 67.4345C44.359 67.3929 44.4337 67.3325 44.4922 67.2578L53.2422 56.1875C53.5625 55.7813 53.2734 55.1797 52.75 55.1797Z" fill="#ED4C5C"/>
<path d="M67.3906 28.6484C63.8125 19.2109 54.6953 12.5 44.0156 12.5C33.3359 12.5 24.2188 19.2031 20.6406 28.6406C13.9453 30.3984 9 36.5 9 43.75C9 52.3828 15.9922 59.375 24.6172 59.375H27.75C28.0938 59.375 28.375 59.0938 28.375 58.75V54.0625C28.375 53.7188 28.0938 53.4375 27.75 53.4375H24.6172C21.9844 53.4375 19.5078 52.3906 17.6641 50.4922C15.8281 48.6016 14.8516 46.0547 14.9375 43.4141C15.0078 41.3516 15.7109 39.4141 16.9844 37.7812C18.2891 36.1172 20.1172 34.9062 22.1484 34.3672L25.1094 33.5938L26.1953 30.7344C26.8672 28.9531 27.8047 27.2891 28.9844 25.7812C30.149 24.2868 31.5286 22.973 33.0781 21.8828C36.2891 19.625 40.0703 18.4297 44.0156 18.4297C47.9609 18.4297 51.7422 19.625 54.9531 21.8828C56.5078 22.9766 57.8828 24.2891 59.0469 25.7812C60.2266 27.2891 61.1641 28.9609 61.8359 30.7344L62.9141 33.5859L65.8672 34.3672C70.1016 35.5078 73.0625 39.3594 73.0625 43.75C73.0625 46.3359 72.0547 48.7734 70.2266 50.6016C69.33 51.5033 68.2635 52.2183 67.0888 52.7051C65.914 53.1919 64.6544 53.4408 63.3828 53.4375H60.25C59.9062 53.4375 59.625 53.7188 59.625 54.0625V58.75C59.625 59.0938 59.9062 59.375 60.25 59.375H63.3828C72.0078 59.375 79 52.3828 79 43.75C79 36.5078 74.0703 30.4141 67.3906 28.6484Z" fill="#ED4C5C"/>
</g>
<defs>
<filter id="filter0_d" x="0" y="0" width="88" height="88" filterUnits="userSpaceOnUse" color-interpolation-filters="sRGB">
<feFlood flood-opacity="0" result="BackgroundImageFix"/>
<feColorMatrix in="SourceAlpha" type="matrix" values="0 0 0 0 0 0 0 0 0 0 0 0 0 0 0 0 0 0 127 0"/>
<feOffset dy="4"/>
<feGaussianBlur stdDeviation="2"/>
<feColorMatrix type="matrix" values="0 0 0 0 0 0 0 0 0 0 0 0 0 0 0 0 0 0 0.25 0"/>
<feBlend mode="normal" in2="BackgroundImageFix" result="effect1_dropShadow"/>
<feBlend mode="normal" in="SourceGraphic" in2="effect1_dropShadow" result="shape"/>
</filter>
</defs>
</svg>
